<svg xmlns="http://www.w3.org/2000/svg" version="1.1" xmlns:xlink="http://www.w3.org/1999/xlink" xmlns:svgjs="http://svgjs.dev/svgjs" width="2000" height="1247" viewBox="0 0 2000 1247"><g transform="matrix(1,0,0,1,-1.2121212121212466,0.504858299595071)"><svg viewBox="0 0 396 247" data-background-color="#ffffff" preserveAspectRatio="xMidYMid meet" height="1247" width="2000" xmlns="http://www.w3.org/2000/svg" xmlns:xlink="http://www.w3.org/1999/xlink"><g id="tight-bounds" transform="matrix(1,0,0,1,0.2400000000000091,-0.09999999999999432)"><svg viewBox="0 0 395.52 247.2" height="247.2" width="395.52"><g><svg></svg></g><g><svg viewBox="0 0 395.52 247.2" height="247.2" width="395.52"><g transform="matrix(1,0,0,1,140.95051612903225,47.215199999999996)"><svg viewBox="0 0 113.61896774193546 152.7696" height="152.7696" width="113.61896774193546"><g><svg viewBox="0 0 113.61896774193546 152.7696" height="152.7696" width="113.61896774193546"><g><svg viewBox="0 0 113.61896774193546 152.7696" height="152.7696" width="113.61896774193546"><g><svg viewBox="0 0 113.61896774193546 152.7696" height="152.7696" width="113.61896774193546"><g><svg viewBox="0 0 113.61896774193546 152.7696" height="152.7696" width="113.61896774193546"><g><svg viewBox="0 0 113.61896774193546 152.7696" height="152.7696" width="113.61896774193546"><g transform="matrix(1,0,0,1,0,0)"><svg width="113.61896774193546" viewBox="2.5900001525878906 -31.610000610351562 23.850000381469727 32.06999969482422" height="152.7696" data-palette-color="#8b3c7f"><path d="M2.59-15.52L2.59-15.52Q2.59-18.51 3.45-21.55 4.31-24.6 6.09-26.78L6.09-26.78Q9.89-31.61 16.9-31.61L16.9-31.61Q20.92-31.61 24.71-29.83L24.71-29.83Q25.69-29.43 25.69-28.51L25.69-28.51Q25.69-26.78 24.31-26.72L24.31-26.72Q24.02-26.72 23.79-26.78L23.79-26.78Q19.83-28.16 17.5-28.16 15.17-28.16 13.62-27.64 12.07-27.13 10.92-26.21 9.77-25.29 8.97-24.08 8.16-22.87 7.7-21.38L7.7-21.38Q6.72-18.62 6.72-15.52L6.72-15.52Q6.72-10.46 8.97-7.01L8.97-7.01Q11.61-2.93 17.13-2.93L17.13-2.93Q20.92-2.93 24.37-4.94L24.37-4.94Q24.83-5.06 25.26-5.06 25.69-5.06 26.06-4.66 26.44-4.25 26.44-3.62 26.44-2.99 25.98-2.44 25.52-1.9 24.74-1.47 23.97-1.03 23.02-0.69 22.07-0.34 21.03-0.11L21.03-0.11Q18.85 0.46 16.9 0.46L16.9 0.46Q9.83 0.46 6.09-4.31L6.09-4.31Q2.59-8.62 2.59-15.52Z" opacity="1" transform="matrix(1,0,0,1,0,0)" fill="#8b3c7f" class="undefined-text-0" data-fill-palette-color="primary" id="text-0"></path></svg></g></svg></g></svg></g></svg></g></svg></g></svg></g></svg></g><g><path d="M180.409 0c30.402 0 58.24 10.976 79.769 29.183l-11.147 0c-19.26-14.022-42.974-22.294-68.622-22.295-25.647 0-49.361 8.272-68.621 22.295l-11.147 0c21.528-18.206 49.366-29.183 79.768-29.183zM180.409 247.2c-30.402 0-58.24-10.976-79.768-29.183h11.147c19.26 14.022 42.974 22.294 68.621 22.295 25.647 0 49.361-8.272 68.622-22.295h11.147c-21.528 18.206-49.366 29.183-79.768 29.183z" fill="#8b3c7f" stroke="transparent" data-fill-palette-color="tertiary"></path></g></svg></g><defs></defs></svg><rect width="395.52" height="247.2" fill="none" stroke="none" visibility="hidden"></rect></g></svg></g></svg>